<?xml version="1.0" encoding="UTF-8" standalone="no" ?>
<!DOCTYPE svg PUBLIC "-//W3C//DTD SVG 1.1//EN" "http://www.w3.org/Graphics/SVG/1.1/DTD/svg11.dtd">
<svg width="502mm" xmlns="http://www.w3.org/2000/svg" height="384mm" version="1.1" viewBox="0 0 1897 1455" xmlns:xlink="http://www.w3.org/1999/xlink">
   <path d="M258,661 L477,661 A5,5 0 0,0 482,656 L482,651" fill="none" stroke="#000000" stroke-width="1" stroke-dasharray="16,8"/>
   <polyline fill="none" points="482,651 482,600" stroke="#000000" stroke-width="1"/>
   <polyline fill="none" points="491,586 482,613 473,586 491,586" stroke="#000000" stroke-width="1"/>
   <polyline fill="none" points="477,613 487,613" stroke="#000000" stroke-width="1"/>
   <polyline fill="none" points="526,568 526,493" stroke="#000000" stroke-width="1"/>
   <polyline fill="none" points="526,493 526,418" stroke="#000000" stroke-width="1" stroke-dasharray="16,8"/>
   <polyline fill="none" points="516,581 526,554 535,581 516,581" stroke="#000000" stroke-width="1"/>
   <polyline fill="none" points="531,554 520,554" stroke="#000000" stroke-width="1"/>
   <path d="M791,618 L507,618 A4,4 0 0,1 503,614 L503,609" fill="none" stroke="#000000" stroke-width="1" stroke-dasharray="16,8"/>
   <polyline fill="none" points="503,609 503,600" stroke="#000000" stroke-width="1"/>
   <polyline fill="none" points="513,586 503,613 494,586 513,586" stroke="#000000" stroke-width="1"/>
   <polyline fill="none" points="498,613 509,613" stroke="#000000" stroke-width="1"/>
   <polyline fill="none" points="554,333 554,280" stroke="#000000" stroke-width="1" stroke-dasharray="16,8"/>
   <polyline fill="none" points="554,280 554,226" stroke="#000000" stroke-width="1"/>
   <polyline fill="none" points="563,213 554,240 545,213 563,213" stroke="#000000" stroke-width="1"/>
   <polyline fill="none" points="549,240 559,240" stroke="#000000" stroke-width="1"/>
   <path d="M567,176 L567,82 A5,5 0 0,1 572,77 L577,77" fill="none" stroke="#000000" stroke-width="1"/>
   <polyline fill="none" points="577,77 1453,77" stroke="#000000" stroke-width="1" stroke-dasharray="16,8"/>
   <polyline fill="none" points="558,190 567,163 577,190 558,190" stroke="#000000" stroke-width="1"/>
   <polyline fill="none" points="573,163 562,163" stroke="#000000" stroke-width="1"/>
   <polyline fill="none" points="930,579 930,488" stroke="#000000" stroke-width="1" stroke-dasharray="16,8"/>
   <polyline fill="none" points="930,488 930,397" stroke="#000000" stroke-width="1"/>
   <polyline fill="none" points="939,384 930,410 921,384 939,384" stroke="#000000" stroke-width="1"/>
   <polyline fill="none" points="925,410 935,410" stroke="#000000" stroke-width="1"/>
   <path d="M919,344 L919,114 A5,5 0 0,1 924,109 L929,109" fill="none" stroke="#000000" stroke-width="1"/>
   <polyline fill="none" points="929,109 1453,109" stroke="#000000" stroke-width="1" stroke-dasharray="16,8"/>
   <polyline fill="none" points="910,357 919,330 929,357 910,357" stroke="#000000" stroke-width="1"/>
   <polyline fill="none" points="925,330 914,330" stroke="#000000" stroke-width="1"/>
   <polyline fill="none" points="133,536 133,301" stroke="#000000" stroke-width="1" stroke-dasharray="16,8"/>
   <polyline fill="none" points="133,301 133,66" stroke="#000000" stroke-width="1"/>
   <polyline fill="none" points="142,53 133,80 124,53 142,53" stroke="#000000" stroke-width="1"/>
   <polyline fill="none" points="128,80 139,80" stroke="#000000" stroke-width="1"/>
   <polyline fill="none" points="205,43 830,43" stroke="#000000" stroke-width="1"/>
   <polyline fill="none" points="830,43 1455,43" stroke="#000000" stroke-width="1" stroke-dasharray="16,8"/>
   <polyline fill="none" points="191,33 218,43 191,52 191,33" stroke="#000000" stroke-width="1"/>
   <polyline fill="none" points="218,48 218,37" stroke="#000000" stroke-width="1"/>
   <path d="M1341,1137 L1341,1113 A4,4 0 0,0 1337,1109 L1332,1109" fill="none" stroke="#000000" stroke-width="1" stroke-dasharray="16,8"/>
   <polyline fill="none" points="1332,1109 896,1109" stroke="#000000" stroke-width="1"/>
   <polyline fill="none" points="882,1100 909,1109 882,1119 882,1100" stroke="#000000" stroke-width="1"/>
   <polyline fill="none" points="909,1115 909,1104" stroke="#000000" stroke-width="1"/>
   <polyline fill="none" points="1015,1005 957,1005" stroke="#000000" stroke-width="1" stroke-dasharray="16,8"/>
   <polyline fill="none" points="957,1005 898,1005" stroke="#000000" stroke-width="1"/>
   <polyline fill="none" points="885,995 911,1005 885,1014 885,995" stroke="#000000" stroke-width="1"/>
   <polyline fill="none" points="911,1010 911,999" stroke="#000000" stroke-width="1"/>
   <path d="M258,773 L419,773 A5,5 0 0,1 424,778 L424,783" fill="none" stroke="#000000" stroke-width="1" stroke-dasharray="16,8"/>
   <polyline fill="none" points="424,783 424,898" stroke="#000000" stroke-width="1"/>
   <polyline fill="none" points="415,912 424,885 433,912 415,912" stroke="#000000" stroke-width="1"/>
   <polyline fill="none" points="430,885 419,885" stroke="#000000" stroke-width="1"/>
   <path d="M493,973 L493,1033 A4,4 0 0,0 497,1037 L502,1037" fill="none" stroke="#000000" stroke-width="1"/>
   <polyline fill="none" points="502,1037 717,1037" stroke="#000000" stroke-width="1" stroke-dasharray="16,8"/>
   <polyline fill="none" points="502,960 493,986 483,960 502,960" stroke="#000000" stroke-width="1"/>
   <polyline fill="none" points="487,986 498,986" stroke="#000000" stroke-width="1"/>
   <path d="M485,898 L485,806 A4,4 0 0,1 489,802 L494,802" fill="none" stroke="#000000" stroke-width="1" stroke-dasharray="16,8"/>
   <polyline fill="none" points="494,802 610,802" stroke="#000000" stroke-width="1"/>
   <polyline fill="none" points="597,797 597,808" stroke="#000000" stroke-width="1"/>
   <path d="M1293,824 L1293,778 A8,8 0 0,1 1301,770 L1336,770 A5,5 0 0,1 1341,775 L1341,780" fill="none" stroke="#000000" stroke-width="1" stroke-dasharray="16,8"/>
   <path d="M1341,780 L1341,965 A8,8 0 0,1 1333,973 L1314,973" fill="none" stroke="#000000" stroke-width="1" stroke-dasharray="16,8"/>
   <polyline fill="none" points="1301,964 1327,973 1301,982 1301,964" stroke="#000000" stroke-width="1"/>
   <path d="M1662,568 L1662,1236 A4,4 0 0,1 1658,1240 L1653,1240" fill="none" stroke="#000000" stroke-width="1" stroke-dasharray="16,8"/>
   <polyline fill="none" points="1653,1240 1474,1240" stroke="#000000" stroke-width="1"/>
   <polyline fill="none" points="1461,1230 1487,1240 1461,1249 1461,1230" stroke="#000000" stroke-width="1"/>
   <polyline fill="none" points="1540,888 1540,818" stroke="#000000" stroke-width="1" stroke-dasharray="16,8"/>
   <polyline fill="none" points="1540,818 1540,749" stroke="#000000" stroke-width="1"/>
   <polyline fill="none" points="1549,736 1540,762 1530,736 1549,736" stroke="#000000" stroke-width="1"/>
   <polyline fill="none" points="1534,762 1545,762" stroke="#000000" stroke-width="1"/>
   <polyline fill="none" points="1314,1014 1383,1014" stroke="#000000" stroke-width="1" stroke-dasharray="16,8"/>
   <polyline fill="none" points="1383,1014 1453,1014" stroke="#000000" stroke-width="1"/>
   <polyline fill="none" points="1466,1023 1439,1014 1466,1004 1466,1023" stroke="#000000" stroke-width="1"/>
   <polyline fill="none" points="1439,1008 1439,1019" stroke="#000000" stroke-width="1"/>
   <path d="M1527,1016 L1539,1016 A5,5 0 0,0 1544,1011 L1544,1006" fill="none" stroke="#000000" stroke-width="1"/>
   <polyline fill="none" points="1544,1006 1544,941" stroke="#000000" stroke-width="1" stroke-dasharray="16,8"/>
   <polyline fill="none" points="1514,1006 1541,1016 1514,1025 1514,1006" stroke="#000000" stroke-width="1"/>
   <polyline fill="none" points="1541,1021 1541,1010" stroke="#000000" stroke-width="1"/>
   <path d="M1697,461 L1844,461 A4,4 0 0,1 1848,465 L1848,470" fill="none" stroke="#000000" stroke-width="1" stroke-dasharray="16,8"/>
   <polyline fill="none" points="1848,470 1848,1293" stroke="#000000" stroke-width="1"/>
   <polyline fill="none" points="1838,1306 1848,1280 1857,1306 1838,1306" stroke="#000000" stroke-width="1"/>
   <path d="M1559,548 L1274,548 A4,4 0 0,0 1270,552 L1270,557" fill="none" stroke="#000000" stroke-width="1" stroke-dasharray="16,8"/>
   <polyline fill="none" points="1270,557 1270,824" stroke="#000000" stroke-width="1"/>
   <polyline fill="none" points="1260,837 1270,810 1279,837 1260,837" stroke="#000000" stroke-width="1"/>
   <path d="M1454,152 L1207,152 A4,4 0 0,0 1203,156 L1203,161" fill="none" stroke="#000000" stroke-width="1" stroke-dasharray="16,8"/>
   <polyline fill="none" points="1203,161 1203,824" stroke="#000000" stroke-width="1"/>
   <polyline fill="none" points="1194,837 1203,810 1213,837 1194,837" stroke="#000000" stroke-width="1"/>
   <path d="M1741,1314 L1151,1314 A8,8 0 0,1 1143,1306 L1143,1288" fill="none" stroke="#000000" stroke-width="1" stroke-dasharray="16,8"/>
   <path d="M1143,1288 L1143,1269 A8,8 0 0,0 1135,1261 L941,1261" fill="none" stroke="#000000" stroke-width="1"/>
   <polyline fill="none" points="927,1252 954,1261 927,1270 927,1252" stroke="#000000" stroke-width="1"/>
   <polyline fill="none" points="954,1267 954,1256" stroke="#000000" stroke-width="1"/>
   <polyline fill="none" points="941,1224 1138,1224" stroke="#000000" stroke-width="1"/>
   <polyline fill="none" points="1138,1224 1335,1224" stroke="#000000" stroke-width="1" stroke-dasharray="16,8"/>
   <polyline fill="none" points="927,1215 954,1224 927,1234 927,1215" stroke="#000000" stroke-width="1"/>
   <polyline fill="none" points="954,1230 954,1219" stroke="#000000" stroke-width="1"/>
   <polyline fill="none" points="1741,1348 1186,1348" stroke="#000000" stroke-width="1" stroke-dasharray="16,8"/>
   <polyline fill="none" points="1186,1348 631,1348" stroke="#000000" stroke-width="1"/>
   <polyline fill="none" points="618,1339 645,1348 618,1357 618,1339" stroke="#000000" stroke-width="1"/>
   <polyline fill="none" points="645,1354 645,1343" stroke="#000000" stroke-width="1"/>
   <path d="M571,668 L571,663 A5,5 0 0,1 576,658 L791,658" fill="none" stroke="#000000" stroke-width="1" stroke-dasharray="16,8"/>
   <polyline fill="none" points="571,1325 571,1042" stroke="#000000" stroke-width="1"/>
   <polyline fill="none" points="571,1032 571,808" stroke="#000000" stroke-width="1"/>
   <path d="M571,1042 A5,5 0 0,0 576,1037" fill="none" stroke="#000000" stroke-width="1"/>
   <line x1="576" x2="576" y1="1037" y2="1037" stroke="#000000" stroke-width="1"/>
   <path d="M576,1037 A5,5 0 0,0 571,1032" fill="none" stroke="#000000" stroke-width="1"/>
   <polyline fill="none" points="571,797 571,668" stroke="#000000" stroke-width="1"/>
   <path d="M571,808 A5,5 0 0,0 576,802" fill="none" stroke="#000000" stroke-width="1"/>
   <line x1="576" x2="576" y1="802" y2="802" stroke="#000000" stroke-width="1"/>
   <path d="M576,802 A5,5 0 0,0 571,797" fill="none" stroke="#000000" stroke-width="1"/>
   <polyline fill="none" points="561,1338 571,1312 580,1338 561,1338" stroke="#000000" stroke-width="1"/>
   <polyline fill="none" points="143,813 143,1058" stroke="#000000" stroke-width="1" stroke-dasharray="16,8"/>
   <polyline fill="none" points="143,1058 143,1304" stroke="#000000" stroke-width="1"/>
   <polyline fill="none" points="134,1317 143,1290 152,1317 134,1317" stroke="#000000" stroke-width="1"/>
   <polyline fill="none" points="148,1290 137,1290" stroke="#000000" stroke-width="1"/>
   <polyline fill="none" points="301,1339 402,1339" stroke="#000000" stroke-width="1"/>
   <polyline fill="none" points="402,1339 503,1339" stroke="#000000" stroke-width="1" stroke-dasharray="16,8"/>
   <polyline fill="none" points="287,1329 314,1339 287,1348 287,1329" stroke="#000000" stroke-width="1"/>
   <polyline fill="none" points="314,1344 314,1333" stroke="#000000" stroke-width="1"/>
   <polyline fill="none" points="578,1215 781,1215" stroke="#000000" stroke-width="1" stroke-dasharray="16,8"/>
   <polyline fill="none" points="375,1215 565,1215" stroke="#000000" stroke-width="1"/>
   <polyline fill="none" points="576,1215 578,1215" stroke="#000000" stroke-width="1"/>
   <path d="M576,1215 A5,5 0 0,0 571,1210" fill="none" stroke="#000000" stroke-width="1"/>
   <line x1="571" x2="571" y1="1210" y2="1210" stroke="#000000" stroke-width="1"/>
   <path d="M571,1210 A5,5 0 0,0 565,1215" fill="none" stroke="#000000" stroke-width="1"/>
   <polyline fill="none" points="362,1206 389,1215 362,1225 362,1206" stroke="#000000" stroke-width="1"/>
   <polyline fill="none" points="389,1221 389,1210" stroke="#000000" stroke-width="1"/>
   <polyline fill="none" points="240,1165 240,987" stroke="#000000" stroke-width="1"/>
   <polyline fill="none" points="240,987 240,810" stroke="#000000" stroke-width="1" stroke-dasharray="16,8"/>
   <polyline fill="none" points="231,1178 240,1152 250,1178 231,1178" stroke="#000000" stroke-width="1"/>
   <polyline fill="none" points="246,1152 235,1152" stroke="#000000" stroke-width="1"/>
   <polyline fill="none" points="1616,365 1616,408" stroke="#000000" stroke-width="1" stroke-dasharray="16,8"/>
   <polyline fill="none" points="1616,408 1616,450" stroke="#000000" stroke-width="1"/>
   <polyline fill="none" points="1607,464 1616,437 1625,464 1607,464" stroke="#000000" stroke-width="1"/>
   <polyline fill="none" points="1565,162 1565,221" stroke="#000000" stroke-width="1" stroke-dasharray="16,8"/>
   <polyline fill="none" points="1565,221 1565,280" stroke="#000000" stroke-width="1"/>
   <polyline fill="none" points="1556,293 1565,266 1575,293 1556,293" stroke="#000000" stroke-width="1"/>
   <path d="M1605,280 L1605,224 A8,8 0 0,1 1613,216 L1886,216 A4,4 0 0,1 1890,220 L1890,225" fill="none" stroke="#000000" stroke-width="1" stroke-dasharray="16,8"/>
   <path d="M1890,225 L1890,314 A8,8 0 0,1 1882,322 L1666,322" fill="none" stroke="#000000" stroke-width="1" stroke-dasharray="16,8"/>
   <polyline fill="none" points="1653,313 1679,322 1653,332 1653,313" stroke="#000000" stroke-width="1"/>
   <path d="M1355,1434 L1360,1434 A5,5 0 0,0 1365,1429 L1365,1353" fill="none" stroke="#000000" stroke-width="1" stroke-dasharray="16,8"/>
   <polyline fill="none" points="1365,1343 1365,1320" stroke="#000000" stroke-width="1" stroke-dasharray="16,8"/>
   <path d="M1365,1353 A5,5 0 0,0 1370,1348" fill="none" stroke="#000000" stroke-width="1" stroke-dasharray="16,8"/>
   <line x1="1370" x2="1370" y1="1348" y2="1348" stroke="#000000" stroke-width="1" stroke-dasharray="16,8"/>
   <path d="M1370,1348 A5,5 0 0,0 1365,1343" fill="none" stroke="#000000" stroke-width="1" stroke-dasharray="16,8"/>
   <polyline fill="none" points="1365,1309 1365,1261" stroke="#000000" stroke-width="1" stroke-dasharray="16,8"/>
   <path d="M1365,1320 A5,5 0 0,0 1370,1314" fill="none" stroke="#000000" stroke-width="1" stroke-dasharray="16,8"/>
   <line x1="1370" x2="1370" y1="1314" y2="1314" stroke="#000000" stroke-width="1" stroke-dasharray="16,8"/>
   <path d="M1370,1314 A5,5 0 0,0 1365,1309" fill="none" stroke="#000000" stroke-width="1" stroke-dasharray="16,8"/>
   <polyline fill="none" points="162,1434 1355,1434" stroke="#000000" stroke-width="1"/>
   <polyline fill="none" points="149,1425 175,1434 149,1444 149,1425" stroke="#000000" stroke-width="1"/>
   <polyline fill="none" points="175,1440 175,1429" stroke="#000000" stroke-width="1"/>
   <polyline fill="none" points="75,1400 75,1106" stroke="#000000" stroke-width="1"/>
   <polyline fill="none" points="75,1106 75,813" stroke="#000000" stroke-width="1" stroke-dasharray="16,8"/>
   <polyline fill="none" points="65,1413 75,1386 84,1413 65,1413" stroke="#000000" stroke-width="1"/>
   <polyline fill="none" points="80,1386 69,1386" stroke="#000000" stroke-width="1"/>
   <defs>
      <linearGradient id="Gradient1" x1="0%" x2="100%" y1="0%" y2="100%" gradientUnits="objectBoundingBox">
         <stop offset="5%" stop-color="#ffffff"/>
         <stop offset="95%" stop-color="#62b0ff"/>
      </linearGradient>
   </defs>
   <rect x="2" y="536" rx="32" ry="32" fill="url(#Gradient1)" width="256" height="277" stroke="#0080ff" stroke-width="1"/>
   <text x="130" y="553" fill="#000000" font-size="16" font-family="Arial" font-weight="bold" text-anchor="middle">PRODUCTO</text>
   <text x="23" y="573" fill="#000000" font-size="16" font-family="Arial">#</text>
   <text x="23" y="592" fill="#000000" font-size="16" font-family="Arial">*</text>
   <text x="23" y="611" fill="#000000" font-size="16" font-family="Arial">*</text>
   <text x="23" y="630" fill="#000000" font-size="16" font-family="Arial">*</text>
   <text x="23" y="649" fill="#000000" font-size="16" font-family="Arial">*</text>
   <text x="23" y="668" fill="#000000" font-size="16" font-family="Arial">*</text>
   <text x="23" y="687" fill="#000000" font-size="16" font-family="Arial">*</text>
   <text x="23" y="706" fill="#000000" font-size="16" font-family="Arial">*</text>
   <text x="23" y="725" fill="#000000" font-size="16" font-family="Arial">*</text>
   <text x="23" y="744" fill="#000000" font-size="16" font-family="Arial">*</text>
   <text x="23" y="763" fill="#000000" font-size="16" font-family="Arial">*</text>
   <text x="23" y="782" fill="#000000" font-size="16" font-family="Arial">*</text>
   <text x="23" y="801" fill="#000000" font-size="16" font-family="Arial">*</text>
   <text x="40" y="573" fill="#000000" font-size="16" font-family="Arial">pr_codigo</text>
   <text x="40" y="592" fill="#000000" font-size="16" font-family="Arial">pr_nombre</text>
   <text x="40" y="611" fill="#000000" font-size="16" font-family="Arial">pr_desc</text>
   <text x="40" y="630" fill="#000000" font-size="16" font-family="Arial">pr_rgo_edad</text>
   <text x="40" y="649" fill="#000000" font-size="16" font-family="Arial">pr_precio_usd</text>
   <text x="40" y="668" fill="#000000" font-size="16" font-family="Arial">pr_cant_piezas</text>
   <text x="40" y="687" fill="#000000" font-size="16" font-family="Arial">pr_alto_cm</text>
   <text x="40" y="706" fill="#000000" font-size="16" font-family="Arial">pr_ancho_cm</text>
   <text x="40" y="725" fill="#000000" font-size="16" font-family="Arial">pr_profundo_cm</text>
   <text x="40" y="744" fill="#000000" font-size="16" font-family="Arial">pr_resumen</text>
   <text x="40" y="763" fill="#000000" font-size="16" font-family="Arial">pr_foto</text>
   <text x="40" y="782" fill="#000000" font-size="16" font-family="Arial">pr_fec_lanzam</text>
   <text x="40" y="801" fill="#000000" font-size="16" font-family="Arial">pr_instrucciones</text>
   <defs>
      <linearGradient id="Gradient2" x1="0%" x2="100%" y1="0%" y2="100%" gradientUnits="objectBoundingBox">
         <stop offset="5%" stop-color="#ffffff"/>
         <stop offset="95%" stop-color="#62b0ff"/>
      </linearGradient>
   </defs>
   <rect x="439" y="333" rx="10" ry="10" fill="url(#Gradient2)" width="256" height="85" stroke="#0080ff" stroke-width="1"/>
   <text x="567" y="350" fill="#000000" font-size="16" font-family="Arial" font-weight="bold" text-anchor="middle">CATEGORIA</text>
   <text x="449" y="370" fill="#000000" font-size="16" font-family="Arial">#</text>
   <text x="449" y="389" fill="#000000" font-size="16" font-family="Arial">*</text>
   <text x="449" y="408" fill="#000000" font-size="16" font-family="Arial">*</text>
   <text x="466" y="370" fill="#000000" font-size="16" font-family="Arial">ca_id</text>
   <text x="466" y="389" fill="#000000" font-size="16" font-family="Arial">ca_nombre</text>
   <text x="466" y="408" fill="#000000" font-size="16" font-family="Arial">ca_desc</text>
   <defs>
      <linearGradient id="Gradient3" x1="0%" x2="100%" y1="0%" y2="100%" gradientUnits="objectBoundingBox">
         <stop offset="5%" stop-color="#ffffff"/>
         <stop offset="95%" stop-color="#62b0ff"/>
      </linearGradient>
   </defs>
   <rect x="791" y="579" rx="13" ry="13" fill="url(#Gradient3)" width="256" height="106" stroke="#0080ff" stroke-width="1"/>
   <text x="919" y="596" fill="#000000" font-size="16" font-family="Arial" font-weight="bold" text-anchor="middle">TEMA</text>
   <text x="803" y="616" fill="#000000" font-size="16" font-family="Arial">#</text>
   <text x="803" y="635" fill="#000000" font-size="16" font-family="Arial">*</text>
   <text x="803" y="654" fill="#000000" font-size="16" font-family="Arial">*</text>
   <text x="803" y="673" fill="#000000" font-size="16" font-family="Arial">*</text>
   <text x="820" y="616" fill="#000000" font-size="16" font-family="Arial">te_id</text>
   <text x="820" y="635" fill="#000000" font-size="16" font-family="Arial">te_nombre</text>
   <text x="820" y="654" fill="#000000" font-size="16" font-family="Arial">te_desc</text>
   <text x="820" y="673" fill="#000000" font-size="16" font-family="Arial">te_licensia</text>
   <defs>
      <linearGradient id="Gradient4" x1="0%" x2="100%" y1="0%" y2="100%" gradientUnits="objectBoundingBox">
         <stop offset="5%" stop-color="#ffffff"/>
         <stop offset="95%" stop-color="#62b0ff"/>
      </linearGradient>
   </defs>
   <rect x="452" y="568" rx="4" ry="4" fill="url(#Gradient4)" width="94" height="32" stroke="#0080ff" stroke-width="1"/>
   <text x="499" y="585" fill="#000000" font-size="16" font-family="Arial" font-weight="bold" text-anchor="middle">CA_PR_TE</text>
   <defs>
      <linearGradient id="Gradient5" x1="0%" x2="100%" y1="0%" y2="100%" gradientUnits="objectBoundingBox">
         <stop offset="5%" stop-color="#ffffff"/>
         <stop offset="95%" stop-color="#62b0ff"/>
      </linearGradient>
   </defs>
   <rect x="1559" y="450" rx="14" ry="14" fill="url(#Gradient5)" width="139" height="118" stroke="#0080ff" stroke-width="1"/>
   <text x="1629" y="467" fill="#000000" font-size="16" font-family="Arial" font-weight="bold" text-anchor="middle">LUGAR</text>
   <text x="1571" y="487" fill="#000000" font-size="16" font-family="Arial">#</text>
   <text x="1571" y="506" fill="#000000" font-size="16" font-family="Arial">*</text>
   <text x="1571" y="525" fill="#000000" font-size="16" font-family="Arial">*</text>
   <text x="1571" y="544" fill="#000000" font-size="16" font-family="Arial">*</text>
   <text x="1571" y="563" fill="#000000" font-size="16" font-family="Arial">*</text>
   <text x="1588" y="487" fill="#000000" font-size="16" font-family="Arial">lu_id</text>
   <text x="1588" y="506" fill="#000000" font-size="16" font-family="Arial">lu_calle</text>
   <text x="1588" y="525" fill="#000000" font-size="16" font-family="Arial">lu_numero_edif</text>
   <text x="1588" y="544" fill="#000000" font-size="16" font-family="Arial">lu_zona_postal</text>
   <text x="1588" y="563" fill="#000000" font-size="16" font-family="Arial">lu_local</text>
   <defs>
      <linearGradient id="Gradient6" x1="0%" x2="100%" y1="0%" y2="100%" gradientUnits="objectBoundingBox">
         <stop offset="5%" stop-color="#ffffff"/>
         <stop offset="95%" stop-color="#62b0ff"/>
      </linearGradient>
   </defs>
   <rect x="439" y="176" rx="6" ry="6" fill="url(#Gradient6)" width="203" height="50" stroke="#0080ff" stroke-width="1"/>
   <text x="540" y="193" fill="#000000" font-size="16" font-family="Arial" font-weight="bold" text-anchor="middle">DISP_CATE</text>
   <text x="447" y="213" fill="#000000" font-size="16" font-family="Arial">*</text>
   <text x="461" y="213" fill="#000000" font-size="16" font-family="Arial">dca_disp</text>
   <defs>
      <linearGradient id="Gradient7" x1="0%" x2="100%" y1="0%" y2="100%" gradientUnits="objectBoundingBox">
         <stop offset="5%" stop-color="#ffffff"/>
         <stop offset="95%" stop-color="#62b0ff"/>
      </linearGradient>
   </defs>
   <rect x="823" y="344" rx="6" ry="6" fill="url(#Gradient7)" width="203" height="53" stroke="#0080ff" stroke-width="1"/>
   <text x="925" y="361" fill="#000000" font-size="16" font-family="Arial" font-weight="bold" text-anchor="middle">DISP_TEMA</text>
   <text x="831" y="381" fill="#000000" font-size="16" font-family="Arial">*</text>
   <text x="845" y="381" fill="#000000" font-size="16" font-family="Arial">dte_disp</text>
   <defs>
      <linearGradient id="Gradient8" x1="0%" x2="100%" y1="0%" y2="100%" gradientUnits="objectBoundingBox">
         <stop offset="5%" stop-color="#ffffff"/>
         <stop offset="95%" stop-color="#62b0ff"/>
      </linearGradient>
   </defs>
   <rect x="77" y="2" rx="8" ry="8" fill="url(#Gradient8)" width="128" height="64" stroke="#0080ff" stroke-width="1"/>
   <text x="141" y="19" fill="#000000" font-size="16" font-family="Arial" font-weight="bold" text-anchor="middle">DISP_PROD</text>
   <text x="85" y="39" fill="#000000" font-size="16" font-family="Arial">*</text>
   <text x="85" y="58" fill="#000000" font-size="16" font-family="Arial">*</text>
   <text x="99" y="39" fill="#000000" font-size="16" font-family="Arial">dpr_disp</text>
   <text x="99" y="58" fill="#000000" font-size="16" font-family="Arial">dpr_limite</text>
   <defs>
      <linearGradient id="Gradient9" x1="0%" x2="100%" y1="0%" y2="100%" gradientUnits="objectBoundingBox">
         <stop offset="5%" stop-color="#ffffff"/>
         <stop offset="95%" stop-color="#62b0ff"/>
      </linearGradient>
   </defs>
   <rect x="1335" y="1133" rx="16" ry="16" fill="url(#Gradient9)" width="139" height="128" stroke="#0080ff" stroke-width="1"/>
   <text x="1404" y="1150" fill="#000000" font-size="16" font-family="Arial" font-weight="bold" text-anchor="middle">TIENDA</text>
   <text x="1348" y="1170" fill="#000000" font-size="16" font-family="Arial">#</text>
   <text x="1348" y="1189" fill="#000000" font-size="16" font-family="Arial">*</text>
   <text x="1348" y="1208" fill="#000000" font-size="16" font-family="Arial">*</text>
   <text x="1348" y="1227" fill="#000000" font-size="16" font-family="Arial">*</text>
   <text x="1348" y="1246" fill="#000000" font-size="16" font-family="Arial">*</text>
   <text x="1365" y="1170" fill="#000000" font-size="16" font-family="Arial">ti_id</text>
   <text x="1365" y="1189" fill="#000000" font-size="16" font-family="Arial">ti_nombre_T</text>
   <text x="1365" y="1208" fill="#000000" font-size="16" font-family="Arial">ti_telefono</text>
   <text x="1365" y="1227" fill="#000000" font-size="16" font-family="Arial">ti_horario</text>
   <text x="1365" y="1246" fill="#000000" font-size="16" font-family="Arial">ti_fotos</text>
   <defs>
      <linearGradient id="Gradient10" x1="0%" x2="100%" y1="0%" y2="100%" gradientUnits="objectBoundingBox">
         <stop offset="5%" stop-color="#ffffff"/>
         <stop offset="95%" stop-color="#62b0ff"/>
      </linearGradient>
   </defs>
   <rect x="1015" y="824" rx="26" ry="26" fill="url(#Gradient10)" width="299" height="213" stroke="#0080ff" stroke-width="1"/>
   <text x="1165" y="841" fill="#000000" font-size="16" font-family="Arial" font-weight="bold" text-anchor="middle">PERSONA</text>
   <text x="1033" y="861" fill="#000000" font-size="16" font-family="Arial">#</text>
   <text x="1033" y="880" fill="#000000" font-size="16" font-family="Arial">*</text>
   <text x="1033" y="899" fill="#000000" font-size="16" font-family="Arial">o</text>
   <text x="1033" y="918" fill="#000000" font-size="16" font-family="Arial">*</text>
   <text x="1033" y="937" fill="#000000" font-size="16" font-family="Arial">o</text>
   <text x="1033" y="956" fill="#000000" font-size="16" font-family="Arial">*</text>
   <text x="1033" y="975" fill="#000000" font-size="16" font-family="Arial">*</text>
   <text x="1033" y="994" fill="#000000" font-size="16" font-family="Arial">*</text>
   <text x="1050" y="861" fill="#000000" font-size="16" font-family="Arial">pe_id</text>
   <text x="1050" y="880" fill="#000000" font-size="16" font-family="Arial">pe_nombre</text>
   <text x="1050" y="899" fill="#000000" font-size="16" font-family="Arial">pe_nombre_s</text>
   <text x="1050" y="918" fill="#000000" font-size="16" font-family="Arial">pe_apellido</text>
   <text x="1050" y="937" fill="#000000" font-size="16" font-family="Arial">pe_apellido_s</text>
   <text x="1050" y="956" fill="#000000" font-size="16" font-family="Arial">pe_f_nac</text>
   <text x="1050" y="975" fill="#000000" font-size="16" font-family="Arial">pe_genero</text>
   <text x="1050" y="994" fill="#000000" font-size="16" font-family="Arial">pe_experiencia</text>
   <defs>
      <linearGradient id="Gradient11" x1="0%" x2="100%" y1="0%" y2="100%" gradientUnits="objectBoundingBox">
         <stop offset="5%" stop-color="#ffffff"/>
         <stop offset="95%" stop-color="#62b0ff"/>
      </linearGradient>
   </defs>
   <rect x="717" y="941" rx="22" ry="22" fill="url(#Gradient11)" width="181" height="181" stroke="#0080ff" stroke-width="1"/>
   <text x="807" y="958" fill="#000000" font-size="16" font-family="Arial" font-weight="bold" text-anchor="middle">VENTA</text>
   <text x="733" y="978" fill="#000000" font-size="16" font-family="Arial">#</text>
   <text x="733" y="997" fill="#000000" font-size="16" font-family="Arial">*</text>
   <text x="733" y="1016" fill="#000000" font-size="16" font-family="Arial">*</text>
   <text x="733" y="1035" fill="#000000" font-size="16" font-family="Arial">o</text>
   <text x="733" y="1054" fill="#000000" font-size="16" font-family="Arial">*</text>
   <text x="733" y="1073" fill="#000000" font-size="16" font-family="Arial">o</text>
   <text x="733" y="1092" fill="#000000" font-size="16" font-family="Arial">o</text>
   <text x="733" y="1111" fill="#000000" font-size="16" font-family="Arial">*</text>
   <text x="750" y="978" fill="#000000" font-size="16" font-family="Arial">ve_codigo</text>
   <text x="750" y="997" fill="#000000" font-size="16" font-family="Arial">ve_fecha</text>
   <text x="750" y="1016" fill="#000000" font-size="16" font-family="Arial">ve_moneda</text>
   <text x="750" y="1035" fill="#000000" font-size="16" font-family="Arial">ve_monto</text>
   <text x="750" y="1054" fill="#000000" font-size="16" font-family="Arial">ve_us_final</text>
   <text x="750" y="1073" fill="#000000" font-size="16" font-family="Arial">ve_uf_genero</text>
   <text x="750" y="1092" fill="#000000" font-size="16" font-family="Arial">ve_uf_fec_nac</text>
   <text x="750" y="1111" fill="#000000" font-size="16" font-family="Arial">ve_tipo_cliente</text>
   <defs>
      <linearGradient id="Gradient12" x1="0%" x2="100%" y1="0%" y2="100%" gradientUnits="objectBoundingBox">
         <stop offset="5%" stop-color="#ffffff"/>
         <stop offset="95%" stop-color="#62b0ff"/>
      </linearGradient>
   </defs>
   <rect x="386" y="898" rx="9" ry="9" fill="url(#Gradient12)" width="160" height="75" stroke="#0080ff" stroke-width="1"/>
   <text x="466" y="915" fill="#000000" font-size="16" font-family="Arial" font-weight="bold" text-anchor="middle">DETALLE_VENTA</text>
   <text x="395" y="935" fill="#000000" font-size="16" font-family="Arial">*</text>
   <text x="395" y="954" fill="#000000" font-size="16" font-family="Arial">*</text>
   <text x="409" y="935" fill="#000000" font-size="16" font-family="Arial">dv_cantidad</text>
   <text x="409" y="954" fill="#000000" font-size="16" font-family="Arial">dv_subtotal</text>
   <defs>
      <linearGradient id="Gradient13" x1="0%" x2="100%" y1="0%" y2="100%" gradientUnits="objectBoundingBox">
         <stop offset="5%" stop-color="#ffffff"/>
         <stop offset="95%" stop-color="#62b0ff"/>
      </linearGradient>
   </defs>
   <rect x="610" y="770" rx="18" ry="18" fill="url(#Gradient13)" width="288" height="150" stroke="#0080ff" stroke-width="1"/>
   <text x="754" y="787" fill="#000000" font-size="16" font-family="Arial" font-weight="bold" text-anchor="middle">VALORACION</text>
   <text x="624" y="807" fill="#000000" font-size="16" font-family="Arial">#</text>
   <text x="624" y="826" fill="#000000" font-size="16" font-family="Arial">*</text>
   <text x="624" y="845" fill="#000000" font-size="16" font-family="Arial">*</text>
   <text x="624" y="864" fill="#000000" font-size="16" font-family="Arial">*</text>
   <text x="624" y="883" fill="#000000" font-size="16" font-family="Arial">*</text>
   <text x="624" y="902" fill="#000000" font-size="16" font-family="Arial">o</text>
   <text x="641" y="807" fill="#000000" font-size="16" font-family="Arial">va_id</text>
   <text x="641" y="826" fill="#000000" font-size="16" font-family="Arial">va_fecha</text>
   <text x="641" y="845" fill="#000000" font-size="16" font-family="Arial">va_experiencia</text>
   <text x="641" y="864" fill="#000000" font-size="16" font-family="Arial">va_calidad_pr</text>
   <text x="641" y="883" fill="#000000" font-size="16" font-family="Arial">va_dificultad</text>
   <text x="641" y="902" fill="#000000" font-size="16" font-family="Arial">va_impresiones</text>
   <defs>
      <linearGradient id="Gradient14" x1="0%" x2="100%" y1="0%" y2="100%" gradientUnits="objectBoundingBox">
         <stop offset="5%" stop-color="#ffffff"/>
         <stop offset="95%" stop-color="#62b0ff"/>
      </linearGradient>
   </defs>
   <rect x="1474" y="888" rx="6" ry="6" fill="url(#Gradient14)" width="96" height="53" stroke="#0080ff" stroke-width="1"/>
   <text x="1522" y="905" fill="#000000" font-size="16" font-family="Arial" font-weight="bold" text-anchor="middle">TOUR</text>
   <text x="1482" y="925" fill="#000000" font-size="16" font-family="Arial">#</text>
   <text x="1499" y="925" fill="#000000" font-size="16" font-family="Arial">to_fecha</text>
   <defs>
      <linearGradient id="Gradient15" x1="0%" x2="100%" y1="0%" y2="100%" gradientUnits="objectBoundingBox">
         <stop offset="5%" stop-color="#ffffff"/>
         <stop offset="95%" stop-color="#62b0ff"/>
      </linearGradient>
   </defs>
   <rect x="1474" y="664" rx="10" ry="10" fill="url(#Gradient15)" width="149" height="85" stroke="#0080ff" stroke-width="1"/>
   <text x="1548" y="681" fill="#000000" font-size="16" font-family="Arial" font-weight="bold" text-anchor="middle">DETALLE_TOUR</text>
   <text x="1484" y="701" fill="#000000" font-size="16" font-family="Arial">#</text>
   <text x="1484" y="720" fill="#000000" font-size="16" font-family="Arial">*</text>
   <text x="1484" y="739" fill="#000000" font-size="16" font-family="Arial">*</text>
   <text x="1501" y="701" fill="#000000" font-size="16" font-family="Arial">dt_id</text>
   <text x="1501" y="720" fill="#000000" font-size="16" font-family="Arial">dt_horario</text>
   <text x="1501" y="739" fill="#000000" font-size="16" font-family="Arial">dt_desc</text>
   <defs>
      <linearGradient id="Gradient16" x1="0%" x2="100%" y1="0%" y2="100%" gradientUnits="objectBoundingBox">
         <stop offset="5%" stop-color="#ffffff"/>
         <stop offset="95%" stop-color="#62b0ff"/>
      </linearGradient>
   </defs>
   <rect x="1453" y="994" rx="4" ry="4" fill="url(#Gradient16)" width="74" height="32" stroke="#0080ff" stroke-width="1"/>
   <text x="1490" y="1011" fill="#000000" font-size="16" font-family="Arial" font-weight="bold" text-anchor="middle">TO_PE</text>
   <defs>
      <linearGradient id="Gradient17" x1="0%" x2="100%" y1="0%" y2="100%" gradientUnits="objectBoundingBox">
         <stop offset="5%" stop-color="#ffffff"/>
         <stop offset="95%" stop-color="#62b0ff"/>
      </linearGradient>
   </defs>
   <rect x="1741" y="1293" rx="8" ry="8" fill="url(#Gradient17)" width="117" height="64" stroke="#0080ff" stroke-width="1"/>
   <text x="1799" y="1310" fill="#000000" font-size="16" font-family="Arial" font-weight="bold" text-anchor="middle">FABRICA</text>
   <text x="1749" y="1330" fill="#000000" font-size="16" font-family="Arial">#</text>
   <text x="1749" y="1349" fill="#000000" font-size="16" font-family="Arial">*</text>
   <text x="1766" y="1330" fill="#000000" font-size="16" font-family="Arial">fa_id</text>
   <text x="1766" y="1349" fill="#000000" font-size="16" font-family="Arial">fa_nombre</text>
   <defs>
      <linearGradient id="Gradient18" x1="0%" x2="100%" y1="0%" y2="100%" gradientUnits="objectBoundingBox">
         <stop offset="5%" stop-color="#ffffff"/>
         <stop offset="95%" stop-color="#62b0ff"/>
      </linearGradient>
   </defs>
   <rect x="781" y="1176" rx="16" ry="16" fill="url(#Gradient18)" width="160" height="128" stroke="#0080ff" stroke-width="1"/>
   <text x="861" y="1193" fill="#000000" font-size="16" font-family="Arial" font-weight="bold" text-anchor="middle">PEDIDO</text>
   <text x="793" y="1213" fill="#000000" font-size="16" font-family="Arial">#</text>
   <text x="793" y="1232" fill="#000000" font-size="16" font-family="Arial">*</text>
   <text x="793" y="1251" fill="#000000" font-size="16" font-family="Arial">*</text>
   <text x="793" y="1270" fill="#000000" font-size="16" font-family="Arial">o</text>
   <text x="793" y="1289" fill="#000000" font-size="16" font-family="Arial">o</text>
   <text x="810" y="1213" fill="#000000" font-size="16" font-family="Arial">pd_orden</text>
   <text x="810" y="1232" fill="#000000" font-size="16" font-family="Arial">pd_fec_pedido</text>
   <text x="810" y="1251" fill="#000000" font-size="16" font-family="Arial">pd_fec_objetivo</text>
   <text x="810" y="1270" fill="#000000" font-size="16" font-family="Arial">pd_fec_llegada</text>
   <text x="810" y="1289" fill="#000000" font-size="16" font-family="Arial">pd_precio_f</text>
   <defs>
      <linearGradient id="Gradient19" x1="0%" x2="100%" y1="0%" y2="100%" gradientUnits="objectBoundingBox">
         <stop offset="5%" stop-color="#ffffff"/>
         <stop offset="95%" stop-color="#62b0ff"/>
      </linearGradient>
   </defs>
   <rect x="503" y="1325" rx="6" ry="6" fill="url(#Gradient19)" width="128" height="53" stroke="#0080ff" stroke-width="1"/>
   <text x="567" y="1342" fill="#000000" font-size="16" font-family="Arial" font-weight="bold" text-anchor="middle">LINEA_PROD</text>
   <text x="511" y="1362" fill="#000000" font-size="16" font-family="Arial">#</text>
   <text x="528" y="1362" fill="#000000" font-size="16" font-family="Arial">lp_id</text>
   <defs>
      <linearGradient id="Gradient20" x1="0%" x2="100%" y1="0%" y2="100%" gradientUnits="objectBoundingBox">
         <stop offset="5%" stop-color="#ffffff"/>
         <stop offset="95%" stop-color="#62b0ff"/>
      </linearGradient>
   </defs>
   <rect x="87" y="1304" rx="6" ry="6" fill="url(#Gradient20)" width="214" height="53" stroke="#0080ff" stroke-width="1"/>
   <text x="194" y="1321" fill="#000000" font-size="16" font-family="Arial" font-weight="bold" text-anchor="middle">INVENTARIO_F</text>
   <text x="95" y="1341" fill="#000000" font-size="16" font-family="Arial">*</text>
   <text x="109" y="1341" fill="#000000" font-size="16" font-family="Arial">if_cantidad</text>
   <defs>
      <linearGradient id="Gradient21" x1="0%" x2="100%" y1="0%" y2="100%" gradientUnits="objectBoundingBox">
         <stop offset="5%" stop-color="#ffffff"/>
         <stop offset="95%" stop-color="#62b0ff"/>
      </linearGradient>
   </defs>
   <rect x="215" y="1165" rx="8" ry="8" fill="url(#Gradient21)" width="160" height="64" stroke="#0080ff" stroke-width="1"/>
   <text x="295" y="1182" fill="#000000" font-size="16" font-family="Arial" font-weight="bold" text-anchor="middle">DETALLE_PEDIDO</text>
   <text x="224" y="1202" fill="#000000" font-size="16" font-family="Arial">*</text>
   <text x="224" y="1221" fill="#000000" font-size="16" font-family="Arial">*</text>
   <text x="238" y="1202" fill="#000000" font-size="16" font-family="Arial">dp_cantidad</text>
   <text x="238" y="1221" fill="#000000" font-size="16" font-family="Arial">dp_subtotal</text>
   <defs>
      <linearGradient id="Gradient22" x1="0%" x2="100%" y1="0%" y2="100%" gradientUnits="objectBoundingBox">
         <stop offset="5%" stop-color="#ffffff"/>
         <stop offset="95%" stop-color="#62b0ff"/>
      </linearGradient>
   </defs>
   <rect x="1410" y="1378" rx="8" ry="8" fill="url(#Gradient22)" width="117" height="64" stroke="#0080ff" stroke-width="1"/>
   <text x="1468" y="1395" fill="#000000" font-size="16" font-family="Arial" font-weight="bold" text-anchor="middle">MONEDA</text>
   <text x="1419" y="1415" fill="#000000" font-size="16" font-family="Arial">*</text>
   <text x="1419" y="1434" fill="#000000" font-size="16" font-family="Arial">*</text>
   <text x="1433" y="1415" fill="#000000" font-size="16" font-family="Arial">mo_nombre</text>
   <text x="1433" y="1434" fill="#000000" font-size="16" font-family="Arial">mo_cambio</text>
   <defs>
      <linearGradient id="Gradient23" x1="0%" x2="100%" y1="0%" y2="100%" gradientUnits="objectBoundingBox">
         <stop offset="5%" stop-color="#ffffff"/>
         <stop offset="95%" stop-color="#62b0ff"/>
      </linearGradient>
   </defs>
   <rect x="1623" y="1368" rx="10" ry="10" fill="url(#Gradient23)" width="96" height="85" stroke="#0080ff" stroke-width="1"/>
   <text x="1671" y="1385" fill="#000000" font-size="16" font-family="Arial" font-weight="bold" text-anchor="middle">HORARIO</text>
   <text x="1633" y="1405" fill="#000000" font-size="16" font-family="Arial">o</text>
   <text x="1633" y="1424" fill="#000000" font-size="16" font-family="Arial">*</text>
   <text x="1633" y="1443" fill="#000000" font-size="16" font-family="Arial">*</text>
   <text x="1650" y="1405" fill="#000000" font-size="16" font-family="Arial">hr_dias</text>
   <text x="1650" y="1424" fill="#000000" font-size="16" font-family="Arial">hr_inicio</text>
   <text x="1650" y="1443" fill="#000000" font-size="16" font-family="Arial">hr_fin</text>
   <defs>
      <linearGradient id="Gradient24" x1="0%" x2="100%" y1="0%" y2="100%" gradientUnits="objectBoundingBox">
         <stop offset="5%" stop-color="#ffffff"/>
         <stop offset="95%" stop-color="#62b0ff"/>
      </linearGradient>
   </defs>
   <rect x="1453" y="34" rx="16" ry="16" fill="url(#Gradient24)" width="160" height="128" stroke="#0080ff" stroke-width="1"/>
   <text x="1533" y="51" fill="#000000" font-size="16" font-family="Arial" font-weight="bold" text-anchor="middle">PAIS</text>
   <text x="1465" y="71" fill="#000000" font-size="16" font-family="Arial">#</text>
   <text x="1465" y="90" fill="#000000" font-size="16" font-family="Arial">*</text>
   <text x="1465" y="109" fill="#000000" font-size="16" font-family="Arial">*</text>
   <text x="1465" y="128" fill="#000000" font-size="16" font-family="Arial">*</text>
   <text x="1465" y="147" fill="#000000" font-size="16" font-family="Arial">*</text>
   <text x="1482" y="71" fill="#000000" font-size="16" font-family="Arial">pa_id</text>
   <text x="1482" y="90" fill="#000000" font-size="16" font-family="Arial">pa_nombre</text>
   <text x="1482" y="109" fill="#000000" font-size="16" font-family="Arial">pa_nacionalidad</text>
   <text x="1482" y="128" fill="#000000" font-size="16" font-family="Arial">pa_continente</text>
   <text x="1482" y="147" fill="#000000" font-size="16" font-family="Arial">pa_moneda</text>
   <defs>
      <linearGradient id="Gradient25" x1="0%" x2="100%" y1="0%" y2="100%" gradientUnits="objectBoundingBox">
         <stop offset="5%" stop-color="#ffffff"/>
         <stop offset="95%" stop-color="#62b0ff"/>
      </linearGradient>
   </defs>
   <rect x="1517" y="280" rx="10" ry="10" fill="url(#Gradient25)" width="149" height="85" stroke="#0080ff" stroke-width="1"/>
   <text x="1524" y="297" fill="#000000" font-size="16" font-family="Arial" font-weight="bold">ESTADO_CIUDAD</text>
   <text x="1527" y="317" fill="#000000" font-size="16" font-family="Arial">#</text>
   <text x="1527" y="336" fill="#000000" font-size="16" font-family="Arial">*</text>
   <text x="1527" y="355" fill="#000000" font-size="16" font-family="Arial">*</text>
   <text x="1544" y="317" fill="#000000" font-size="16" font-family="Arial">ec_id</text>
   <text x="1544" y="336" fill="#000000" font-size="16" font-family="Arial">ec_nombre</text>
   <text x="1544" y="355" fill="#000000" font-size="16" font-family="Arial">ec_tipo</text>
   <defs>
      <linearGradient id="Gradient26" x1="0%" x2="100%" y1="0%" y2="100%" gradientUnits="objectBoundingBox">
         <stop offset="5%" stop-color="#ffffff"/>
         <stop offset="95%" stop-color="#62b0ff"/>
      </linearGradient>
   </defs>
   <rect x="23" y="1400" rx="6" ry="6" fill="url(#Gradient26)" width="139" height="53" stroke="#0080ff" stroke-width="1"/>
   <text x="93" y="1417" fill="#000000" font-size="16" font-family="Arial" font-weight="bold" text-anchor="middle">INVENTARIO_T</text>
   <text x="31" y="1437" fill="#000000" font-size="16" font-family="Arial">*</text>
   <text x="45" y="1437" fill="#000000" font-size="16" font-family="Arial">it_cantidad</text>
</svg>
